<svg xmlns="http://www.w3.org/2000/svg" width="31.5" height="31.5" viewBox="0 0 31.5 31.5" fill="rgba(209, 213, 219, 1)">
  <path id="Icon_ionic-md-sunny" data-name="Icon ionic-md-sunny" d="M19.5,2.25h-3v4.5h3V2.25Zm9.077,3.073-2.7,2.7,2.1,2.1,2.7-2.7-2.1-2.1Zm-21.15,0-2.1,2.1,2.7,2.7,2.1-2.1-2.7-2.7ZM18,9a9,9,0,1,0,9,9,9.026,9.026,0,0,0-9-9Zm15.75,7.5h-4.5v3h4.5v-3Zm-27,0H2.25v3h4.5v-3Zm21.227,9.373-2.1,2.1,2.7,2.7,2.1-2.1-2.7-2.7Zm-19.955,0-2.7,2.7,2.1,2.1,2.7-2.7-2.1-2.1ZM19.5,29.25h-3v4.5h3v-4.5Z" transform="translate(-2.25 -2.25)"/>
</svg>
